<svg width="40" height="40" viewBox="0 0 40 40" fill="none" xmlns="http://www.w3.org/2000/svg">
<path fill-rule="evenodd" clip-rule="evenodd" d="M13.8603 0H26.1397C37.3465 0 40 2.65349 40 13.8603V26.1397C40 37.3465 37.3465 40 26.1397 40H13.8603C2.65349 40 0 37.3465 0 26.1397V13.8603C0 2.65349 2.65349 0 13.8603 0Z" fill="#2DA4D7"/>
<path d="M17.3168 28.0575C16.6713 28.0575 16.781 27.8116 16.5584 27.1915L14.6602 20.8893L29.2714 12.1445" fill="#C8DAEA"/>
<path d="M17.3164 28.0561C17.8145 28.0561 18.0346 27.8263 18.3126 27.5536L20.9692 24.9476L17.6555 22.9316" fill="#A9C9DD"/>
<path d="M17.655 22.9328L25.6846 28.9176C26.6009 29.4276 27.2622 29.1636 27.4904 28.0594L30.7589 12.5212C31.0935 11.1676 30.2475 10.5538 29.3709 10.9552L10.1786 18.4211C8.86858 18.9512 8.87622 19.6886 9.93985 20.0171L14.865 21.5679L26.2673 14.3108C26.8056 13.9815 27.2995 14.1585 26.8941 14.5216" fill="url(#paint0_linear_4439_69738)"/>
<defs>
<linearGradient id="paint0_linear_4439_69738" x1="18.4749" y1="20.0787" x2="20.6383" y2="27.0152" gradientUnits="userSpaceOnUse">
<stop stop-color="#EFF7FC"/>
<stop offset="1" stop-color="white"/>
</linearGradient>
</defs>
</svg>
